<?xml version="1.0" standalone="no"?>
<!DOCTYPE svg PUBLIC "-//W3C//DTD SVG 1.1//EN"
  "http://www.w3.org/Graphics/SVG/1.1/DTD/svg11.dtd">
<svg width="173mm" height="156.13300323486328mm" viewBox="-92 -78 173 156.13300323486328" xmlns="http://www.w3.org/2000/svg" version="1.1">
	<title>svgOutput</title>
	<desc>made with tinkercad</desc>
<path d="M -5.25 -77 L -5.249812602996826 -76.99950408935547 L -2.5429999828338623 -69.79199981689453 L -0.944047749042511 -65.53600311279297 L 0 -63.02318572998047 L 0.16500000655651093 -62.58399963378906 L 8.081999778747559 -62.31800079345703 L 16 -62.053001403808594 L 11.317000389099121 -58.51224899291992 L 8.194999694824219 -56.152000427246094 L 3.51200008392334 -52.61199951171875 L 3.5120906829833984 -52.6116943359375 L 4.537376403808594 -49.152000427246094 L 5.697000026702881 -45.23899841308594 L 7.012570381164551 -40.80241012573242 L 7.012599945068359 -40.802310943603516 L 7.882999897003174 -37.867000579833984 L 3.568188190460205 -40.68680953979492 L 3.567713737487793 -40.68711853027344 L 2.9584999084472656 -41.08525085449219 L 0 -43.01853561401367 L -0.32475000619888306 -43.230751037597656 L -5.25 -46.44900131225586 L -10.175250053405762 -43.230751037597656 L -13.458499908447266 -41.08525085449219 L -18.382999420166016 -37.867000579833984 L -18.382909774780273 -37.867305755615234 L -18.38275909423828 -37.8678092956543 L -16.19700050354004 -45.23899841308594 L -15.037376403808594 -49.152000427246094 L -14.01200008392334 -52.61199951171875 L -14.32225513458252 -52.84653091430664 L -20.256000518798828 -57.332000732421875 L -26.5 -62.053001403808594 L -20.561500549316406 -62.25175094604492 L -16.602750778198242 -62.384498596191406 L -10.664999961853027 -62.58399963378906 L -9.555952072143555 -65.53600311279297 L -8.633999824523926 -67.98999786376953 L -7.280250072479248 -71.59400177001953 L -5.250499725341797 -76.99867248535156 L -5.25 -77 M -11.510000228881836 8.628000259399414 L -11.908419609069824 8.192000389099121 L -13.746999740600586 6.179999828338623 L -14.993000030517578 4.617000102996826 L -15.363971710205078 4.0960001945495605 L -16.170000076293945 2.9639999866485596 L -16.09775733947754 4.0960001945495605 L -16.040000915527344 5.000999927520752 L -16 7 L -16.04533576965332 8.192000389099121 L -16.139999389648438 10.680999755859375 L -16.326000213623047 12.472000122070312 L -16.384000778198242 12.828700065612793 L -16.586000442504883 14.071000099182129 L -16.9060001373291 15.369999885559082 L -17.263999938964844 16.29800033569336 L -17.32379722595215 16.384000778198242 L -17.63599967956543 16.83300018310547 L -17.81999969482422 16.959999084472656 L -18 17 L -18.18000030517578 16.959999084472656 L -18.36400032043457 16.83300018310547 L -18.67620277404785 16.384000778198242 L -18.736000061035156 16.29800033569336 L -19.0939998626709 15.369999885559082 L -19.413999557495117 14.071000099182129 L -19.673999786376953 12.472000122070312 L -19.6931095123291 12.288000106811523 L -19.860000610351562 10.680999755859375 L -19.95466423034668 8.192000389099121 L -20 7 L -19.959999084472656 5.000999927520752 L -19.90224266052246 4.0960001945495605 L -19.829999923706055 2.9639999866485596 L -20.479999542236328 3.8768718242645264 L -20.636028289794922 4.0960001945495605 L -21.006999969482422 4.617000102996826 L -22.253000259399414 6.179999828338623 L -24.09157943725586 8.192000389099121 L -24.489999771118164 8.628000259399414 L -24.576000213623047 8.70940113067627 L -25.667999267578125 9.743000030517578 L -26.79199981689453 10.678999900817871 L -27.788999557495117 11.368000030517578 L -28.600000381469727 11.777999877929688 L -28.672000885009766 11.793730735778809 L -29.19499969482422 11.907999992370605 L -29.409000396728516 11.87600040435791 L -29.56999969482422 11.788999557495117 L -29.68400001525879 11.645000457763672 L -29.75200080871582 11.4399995803833 L -29.72800064086914 10.831999778747559 L -29.465999603271484 9.961999893188477 L -28.958999633789062 8.859999656677246 L -28.672000885009766 8.358343124389648 L -28.576833724975586 8.192000389099121 L -28.232999801635742 7.591000080108643 L -27.339000701904297 6.236999988555908 L -25.316999435424805 3.6089999675750732 L -24.576000213623047 2.7732090950012207 L -23.863000869750977 1.968999981880188 L -22.299999237060547 0.4079999923706056 L -21.821786880493164 1.1102230246251565e-16 L -20.788000106811523 -0.8820000290870665 L -20.479999542236328 -1.08749258518219 L -19.499000549316406 -1.7419999837875366 L -19.485435485839844 -2.0480000972747803 L -19.3946475982666 -4.0960001945495605 L -19.378999710083008 -4.448999881744385 L -19.041000366210938 -6.9019999504089355 L -18.80299949645996 -7.834000110626221 L -18.66120147705078 -8.192000389099121 L -18.540000915527344 -8.498000144958496 L -18.267000198364258 -8.880999565124512 L -18.131999969482422 -8.970999717712402 L -18 -9 L -17.868000030517578 -8.970999717712402 L -17.732999801635742 -8.880999565124512 L -17.459999084472656 -8.498000144958496 L -17.33879852294922 -8.192000389099121 L -17.19700050354004 -7.834000110626221 L -16.958999633789062 -6.9019999504089355 L -16.621000289916992 -4.448999881744385 L -16.6053524017334 -4.0960001945495605 L -16.58710289001465 -3.684342861175537 L -16.546855926513672 -2.7764134407043457 L -16.522140502929688 -2.2188854217529297 L -16.514564514160156 -2.0480000972747803 L -16.500999450683594 -1.7419999837875366 L -16.384000778198242 -1.6639394760131836 L -15.211999893188477 -0.8820000290870665 L -14.178214073181152 1.1102230246251565e-16 L -13.699999809265137 0.4079999923706056 L -12.13700008392334 1.968999981880188 L -10.682999610900879 3.6089999675750732 L -10.30829906463623 4.0960001945495605 L -8.66100025177002 6.236999988555908 L -8.192000389099121 6.947319984436035 L -7.767000198364258 7.591000080108643 L -7.423165321350098 8.192000389099121 L -7.040999889373779 8.859999656677246 L -6.533999919891357 9.961999893188477 L -6.271999835968018 10.831999778747559 L -6.248000144958496 11.4399995803833 L -6.315999984741211 11.645000457763672 L -6.429999828338623 11.788999557495117 L -6.591000080108643 11.87600040435791 L -6.804999828338623 11.907999992370605 L -7.400000095367432 11.777999877929688 L -8.192000389099121 11.377605438232422 L -8.211000442504883 11.368000030517578 L -9.208000183105469 10.678999900817871 L -10.331999778747559 9.743000030517578 L -11.510000228881836 8.628000259399414 M 8.131999969482422 -4.9710001945495605 L 8.192000389099121 -4.931000232696533 L 8.267000198364258 -4.88100004196167 L 8.539999961853027 -4.498000144958496 L 8.803000450134277 -3.8340001106262207 L 9.041000366210938 -2.9019999504089355 L 9.378999710083008 -0.4490000009536742 L 9.398903846740723 1.1102230246251565e-16 L 9.477859497070312 1.7811146974563599 L 9.489690780639648 2.0480000972747803 L 9.49899959564209 2.257999897003174 L 10.644248008728027 3.0220909118652344 L 10.788000106811523 3.118000030517578 L 11.934307098388672 4.0960001945495605 L 12.300000190734863 4.4079999923706055 L 13.86299991607666 5.968999862670898 L 15.317000389099121 7.609000205993652 L 15.76556396484375 8.192000389099121 L 16.384000778198242 8.995783805847168 L 17.339000701904297 10.237000465393066 L 18.232999801635742 11.590999603271484 L 18.631755828857422 12.288000106811523 L 18.958999633789062 12.859999656677246 L 19.465999603271484 13.961999893188477 L 19.578630447387695 14.336000442504883 L 19.72800064086914 14.831999778747559 L 19.75200080871582 15.4399995803833 L 19.68400001525879 15.645000457763672 L 19.56999969482422 15.788999557495117 L 19.409000396728516 15.87600040435791 L 19.19499969482422 15.907999992370605 L 18.600000381469727 15.777999877929688 L 17.788999557495117 15.368000030517578 L 16.79199981689453 14.678999900817871 L 16.384000778198242 14.339241981506348 L 15.668000221252441 13.743000030517578 L 14.489999771118164 12.628000259399414 L 14.179306030273438 12.288000106811523 L 12.253000259399414 10.180000305175781 L 11.006999969482422 8.616999626159668 L 10.704383850097656 8.192000389099121 L 9.829999923706055 6.964000225067139 L 9.908370018005371 8.192000389099121 L 9.960000038146973 9.00100040435791 L 10 11 L 9.951013565063477 12.288000106811523 L 9.859999656677246 14.680999755859375 L 9.683138847351074 16.384000778198242 L 9.673999786376953 16.472000122070312 L 9.413999557495117 18.070999145507812 L 9.093999862670898 19.3700008392334 L 8.736000061035156 20.29800033569336 L 8.36400032043457 20.83300018310547 L 8.192000389099121 20.951717376708984 L 8.180000305175781 20.959999084472656 L 8 21 L 7.820000171661377 20.959999084472656 L 7.636000156402588 20.83300018310547 L 7.263999938964844 20.29800033569336 L 6.906000137329102 19.3700008392334 L 6.585999965667725 18.070999145507812 L 6.326000213623047 16.472000122070312 L 6.316861152648926 16.384000778198242 L 6.139999866485596 14.680999755859375 L 6.048986911773682 12.288000106811523 L 6 11 L 6.039999961853027 9.00100040435791 L 6.091629981994629 8.192000389099121 L 6.170000076293945 6.964000225067139 L 5.295616626739502 8.192000389099121 L 4.993000030517578 8.616999626159668 L 3.746999979019165 10.180000305175781 L 1.8206944465637207 12.288000106811523 L 1.5099999904632568 12.628000259399414 L 0.3319999873638153 13.743000030517578 L 0 14.01947021484375 L -0.3801068365573883 14.336000442504883 L -0.7919999957084656 14.678999900817871 L -1.7890000343322754 15.368000030517578 L -2.5999999046325684 15.777999877929688 L -3.194999933242798 15.907999992370605 L -3.4089999198913574 15.87600040435791 L -3.569999933242798 15.788999557495117 L -3.684000015258789 15.645000457763672 L -3.752000093460083 15.4399995803833 L -3.7279999256134033 14.831999778747559 L -3.578629970550537 14.336000442504883 L -3.4660000801086426 13.961999893188477 L -2.9590001106262207 12.859999656677246 L -2.631756544113159 12.288000106811523 L -2.2330000400543213 11.590999603271484 L -1.3389999866485596 10.237000465393066 L 0 8.496697425842285 L 0.23443607985973358 8.192000389099121 L 0.6830000281333923 7.609000205993652 L 2.13700008392334 5.968999862670898 L 3.700000047683716 4.4079999923706055 L 4.065692901611328 4.0960001945495605 L 4.0960001945495605 4.07014274597168 L 5.211999893188477 3.118000030517578 L 6.500999927520752 2.257999897003174 L 6.510309219360352 2.0480000972747803 L 6.601096153259277 1.1102230246251565e-16 L 6.620999813079834 -0.4490000009536742 L 6.959000110626221 -2.9019999504089355 L 7.197000026702881 -3.8340001106262207 L 7.300774097442627 -4.0960001945495605 L 7.460000038146973 -4.498000144958496 L 7.732999801635742 -4.88100004196167 L 7.868000030517578 -4.9710001945495605 L 8 -5 L 8.131999969482422 -4.9710001945495605 M -48.29500961303711 28.438570022583008 L -48.13399887084961 28.010000228881836 L -46.780250549316406 24.4060001373291 L -44.75 19 L -44.749813079833984 19.000499725341797 L -44.7495002746582 19.001331329345703 L -42.042999267578125 26.20800018310547 L -39.57844924926758 32.768001556396484 L -39.334999084472656 33.41600036621094 L -32.768001556396484 33.63664245605469 L -31.417999267578125 33.68199920654297 L -23.50047492980957 33.946983337402344 L -23.5 33.946998596191406 L -28.183000564575195 37.48775100708008 L -31.30500030517578 39.847999572753906 L -32.768001556396484 40.95391845703125 L -35.987998962402344 43.38800048828125 L -34.27983093261719 49.152000427246094 L -33.803001403808594 50.76100158691406 L -32.768001556396484 54.25140380859375 L -31.617000579833984 58.132999420166016 L -32.768001556396484 57.380802154541016 L -36.541500091552734 54.91474914550781 L -39.82474899291992 52.769248962402344 L -44.75 49.55099868774414 L -49.152000427246094 52.42734909057617 L -49.67525100708008 52.769248962402344 L -52.958499908447266 54.91474914550781 L -57.882999420166016 58.132999420166016 L -57.882911682128906 58.132694244384766 L -57.88275909423828 58.1321907043457 L -55.696998596191406 50.76100158691406 L -55.22016906738281 49.152000427246094 L -53.512001037597656 43.38800048828125 L -53.8222541809082 43.15346908569336 L -59.75600051879883 38.667999267578125 L -65.53600311279297 34.29782485961914 L -66 33.946998596191406 L -65.53600311279297 33.93146896362305 L -60.061500549316406 33.74824905395508 L -56.10274887084961 33.615501403808594 L -50.165000915527344 33.41600036621094 L -50.164852142333984 33.41560745239258 L -49.92155075073242 32.768001556396484 L -48.29500961303711 28.438570022583008 M -20.382999420166016 77.13300323486328 L -20.382909774780273 77.13269805908203 L -20.38275909423828 77.13218688964844 L -18.19700050354004 69.76100158691406 L -16.944913864135742 65.53600311279297 L -16.384000778198242 63.64326477050781 L -16.011999130249023 62.38800048828125 L -16.384000778198242 62.10679626464844 L -22.256000518798828 57.667999267578125 L -28.5 52.946998596191406 L -22.561500549316406 52.74824905395508 L -18.602750778198242 52.615501403808594 L -16.384000778198242 52.54095458984375 L -12.664999961853027 52.41600036621094 L -11.438735961914062 49.152000427246094 L -10.633999824523926 47.0099983215332 L -9.28024959564209 43.40599822998047 L -7.25 38 L -7.249812602996826 38.0004997253418 L -7.249500274658203 38.0013313293457 L -4.543000221252441 45.20800018310547 L -3.0612640380859375 49.152000427246094 L -1.9700006246566772 52.056663513183594 L -1.9695978164672852 52.057735443115234 L -1.8350000381469727 52.41600036621094 L 1.9606790691885367e-13 52.47765350341797 L 6.081999778747559 52.68199920654297 L 13.99952507019043 52.946983337402344 L 14 52.946998596191406 L 9.317000389099121 56.48775100708008 L 6.195000171661377 58.847999572753906 L 1.5119999647140503 62.38800048828125 L 2.4449145793914795 65.53600311279297 L 3.697000026702881 69.76100158691406 L 5.882999897003174 77.13300323486328 L 5.881392478942871 77.13195037841797 L 0.9585000276565552 73.91474914550781 L 0 73.28839874267578 L -2.3247499465942383 71.76924896240234 L -7.25 68.5510025024414 L -7.250187397003174 68.5511245727539 L -12.175250053405762 71.76924896240234 L -15.458499908447266 73.91474914550781 L -20.382999420166016 77.13300323486328 M 58.5 31.815000534057617 L 58.49995803833008 31.815032958984375 L 57.239295959472656 32.768001556396484 L 46.012001037597656 41.255001068115234 L 48.196998596191406 48.62799835205078 L 50.382999420166016 56 L 45.458499908447266 52.7817497253418 L 42.17525100708008 50.63624954223633 L 37.576690673828125 47.631465911865234 L 37.25 47.417999267578125 L 32.768001556396484 50.346622467041016 L 32.32474899291992 50.63624954223633 L 29.041500091552734 52.7817497253418 L 24.117000579833984 56 L 24.117090225219727 55.99969482421875 L 24.11724090576172 55.99919128417969 L 26.147619247436523 49.152000427246094 L 26.30299949645996 48.62799835205078 L 28.488000869750977 41.255001068115234 L 17.260705947875977 32.768001556396484 L 16.384000778198242 32.10527420043945 L 16 31.815000534057617 L 16.384000778198242 31.802099227905273 L 21.938499450683594 31.61549949645996 L 25.897249221801758 31.482500076293945 L 31.834999084472656 31.283000946044922 L 32.768001556396484 28.799592971801758 L 33.86600112915039 25.87700080871582 L 35.219749450683594 22.273000717163086 L 37.25 16.867000579833984 L 39.957000732421875 24.075000762939453 L 42.665000915527344 31.283000946044922 L 50.582000732421875 31.548999786376953 L 58.5 31.815000534057617 M 22.617000579833984 -16.867000579833984 L 22.617090225219727 -16.8673038482666 L 22.61724090576172 -16.86781120300293 L 24.80299949645996 -24.23900032043457 L 26.988000869750977 -31.61199951171875 L 25.458749771118164 -32.768001556396484 L 20.743999481201172 -36.332000732421875 L 16.384000778198242 -39.62853240966797 L 14.5 -41.053001403808594 L 16.384000778198242 -41.11605453491211 L 20.438499450683594 -41.25175094604492 L 24.397249221801758 -41.384498596191406 L 30.334999084472656 -41.58399963378906 L 30.335147857666016 -41.58439254760742 L 32.36600112915039 -46.9900016784668 L 32.768001556396484 -48.060218811035156 L 33.719749450683594 -50.59400177001953 L 35.75 -56 L 38.457000732421875 -48.79199981689453 L 41.165000915527344 -41.58399963378906 L 49.082000732421875 -41.31800079345703 L 56.9995231628418 -41.053016662597656 L 57 -41.053001403808594 L 52.31700134277344 -37.51224899291992 L 49.19499969482422 -35.152000427246094 L 46.04125213623047 -32.768001556396484 L 44.512001037597656 -31.61199951171875 L 44.51209259033203 -31.6116943359375 L 44.62068176269531 -31.245267868041992 L 46.696998596191406 -24.23900032043457 L 48.88275909423828 -16.86781120300293 L 48.882999420166016 -16.867000579833984 L 43.958499908447266 -20.085250854492188 L 40.67525100708008 -22.230749130249023 L 35.75 -25.448999404907227 L 32.768001556396484 -23.500505447387695 L 30.824750900268555 -22.230749130249023 L 27.541500091552734 -20.085250854492188 L 22.617000579833984 -16.867000579833984 M -26.5 -43.185001373291016 L -32.768001556396484 -38.44685745239258 L -38.67692565917969 -33.98014831542969 L -38.987998962402344 -33.744998931884766 L -38.698463439941406 -32.768001556396484 L -36.803001403808594 -26.371999740600586 L -34.617000579833984 -19 L -34.61860656738281 -19.00105094909668 L -39.541500091552734 -22.218250274658203 L -42.82474899291992 -24.363750457763672 L -47.75 -27.582000732421875 L -52.67525100708008 -24.363750457763672 L -55.958499908447266 -22.218250274658203 L -60.882999420166016 -19 L -60.882911682128906 -19.000303268432617 L -60.88275909423828 -19.000810623168945 L -58.696998596191406 -26.371999740600586 L -56.801536560058594 -32.768001556396484 L -56.512001037597656 -33.744998931884766 L -65.53600311279297 -40.56647491455078 L -68.99998474121094 -43.18498611450195 L -69 -43.185001373291016 L -65.53600311279297 -43.30137252807617 L -63.061500549316406 -43.384498596191406 L -59.10274887084961 -43.51750183105469 L -53.165000915527344 -43.71699905395508 L -51.13399887084961 -49.12300109863281 L -51.12310791015625 -49.152000427246094 L -49.780250549316406 -52.72700119018555 L -47.75 -58.132999420166016 L -45.042999267578125 -50.92499923706055 L -44.376895904541016 -49.152000427246094 L -42.334999084472656 -43.71699905395508 L -34.417999267578125 -43.45100021362305 L -32.768001556396484 -43.39556884765625 L -26.5 -43.185001373291016 M 75.31700134277344 -5.512249946594238 L 72.19499969482422 -3.1519999504089355 L 68.02527618408203 1.1102230246251565e-16 L 67.51200103759766 0.3880000114440919 L 69.6969985961914 7.761000156402588 L 71.88300323486328 15.133000373840332 L 71.88139343261719 15.131949424743652 L 66.95850372314453 11.914750099182129 L 65.53600311279297 10.985191345214844 L 63.67525100708008 9.76924991607666 L 58.75 6.551000118255615 L 53.82474899291992 9.76924991607666 L 50.541500091552734 11.914750099182129 L 45.617000579833984 15.133000373840332 L 47.803001403808594 7.761000156402588 L 49.987998962402344 0.3880000114440919 L 49.47472381591797 1.1102230246251565e-16 L 43.74399948120117 -4.331999778747559 L 37.5 -9.053000450134277 L 43.438499450683594 -9.251749992370605 L 47.39725112915039 -9.384499549865723 L 53.334999084472656 -9.583999633789062 L 55.36600112915039 -14.989999771118164 L 55.88962173461914 -16.384000778198242 L 56.719749450683594 -18.5939998626709 L 58.75 -24 L 58.750186920166016 -23.999500274658203 L 58.7504997253418 -23.998668670654297 L 61.457000732421875 -16.79199981689453 L 61.61028289794922 -16.384000778198242 L 64.02999877929688 -9.943336486816406 L 64.03040313720703 -9.942264556884766 L 64.03089904785156 -9.940937042236328 L 64.16500091552734 -9.583999633789062 L 65.53600311279297 -9.537936210632324 L 72.08200073242188 -9.317999839782715 L 79.99952697753906 -9.05301570892334 L 80 -9.053000450134277 L 75.31700134277344 -5.512249946594238 M -48.5 -1.184999942779541 L -50.0676155090332 1.1102230246251565e-16 L -60.987998962402344 8.255000114440918 L -58.803001403808594 15.628000259399414 L -58.578826904296875 16.384000778198242 L -56.617000579833984 23 L -61.541500091552734 19.781749725341797 L -64.82475280761719 17.636249542236328 L -65.53600311279297 17.171506881713867 L -69.75 14.418000221252441 L -70.07669067382812 14.631465911865234 L -74.67524719238281 17.636249542236328 L -77.95850372314453 19.781749725341797 L -82.88300323486328 23 L -82.8829116821289 22.999696731567383 L -80.6969985961914 15.628000259399414 L -78.51200103759766 8.255000114440918 L -89.43238830566406 1.1102230246251565e-16 L -91 -1.184999942779541 L -85.0615005493164 -1.3845000267028809 L -81.10275268554688 -1.5175000429153442 L -75.16500091552734 -1.7170000076293945 L -73.13400268554688 -7.123000144958496 L -71.7802505493164 -10.72700023651123 L -69.75050354003906 -16.131668090820312 L -69.75 -16.132999420166016 L -69.74980926513672 -16.13250160217285 L -67.04299926757812 -8.925000190734863 L -65.53600311279297 -4.913753509521484 L -64.33499908447266 -1.7170000076293945 L -56.417999267578125 -1.4509999752044678 L -48.5 -1.184999942779541 z" fill="none" stroke="rgb(0,0,255)" stroke-width="0.01mm" />
</svg>