<?xml version="1.0" standalone="no"?>
<!DOCTYPE svg PUBLIC "-//W3C//DTD SVG 1.1//EN"
  "http://www.w3.org/Graphics/SVG/1.1/DTD/svg11.dtd">
<svg width="185mm" height="173.84938049316406mm" viewBox="-90 -73.97550964355469 185 173.84938049316406" xmlns="http://www.w3.org/2000/svg" version="1.1">
	<title>svgOutput</title>
	<desc>made with tinkercad</desc>
<path d="M 22.224502563476562 64.75 L 22.15486717224121 64.7498779296875 L 21.804386138916016 64.75 L 21.765655517578125 64.74988555908203 L 21.570070266723633 64.75 L 21.319808959960938 64.7500991821289 L 21.168010711669922 64.74990844726562 L 20.88385009765625 64.74991607666016 L 20.86459732055664 64.74993133544922 L 20.617155075073242 64.75006866455078 L 20.50999641418457 64.75 L 20.259952545166016 64.75005340576172 L 20.22811508178711 64.75 L 16.384000778198242 64.75 L 6.138380527496338 64.75 L 5.2210001945495605 64.75 L 7.0920000076293945 62.87900161743164 L 8.512999534606934 60.090999603271484 L 9.003000259399414 57 L 8.512999534606934 53.909000396728516 L 7.0920000076293945 51.12099838256836 L 5.123000144958496 49.152000427246094 L 4.879000186920166 48.90800094604492 L 2.0910000801086426 47.48699951171875 L -6.09454435702983e-14 47.15620040893555 L -1 46.99800109863281 L -4.090519428253174 47.48692321777344 L -4.091000080108643 47.48699951171875 L -6.598742485046387 48.76515579223633 L -6.76139497756958 48.84804916381836 L -6.879000186920166 48.90800094604492 L -7.123000144958496 49.152000427246094 L -8.192000389099121 50.22100067138672 L -9.092000007629395 51.12099838256836 L -10.176098823547363 53.24800109863281 L -10.512999534606934 53.909000396728516 L -11.003000259399414 57 L -10.948467254638672 57.34400177001953 L -10.51463794708252 60.08066940307617 L -10.512999534606934 60.090999603271484 L -9.092000007629395 62.87900161743164 L -9.084589958190918 62.886409759521484 L -7.2210001945495605 64.75 L -16.384000778198242 64.75 L -19.76245880126953 64.75 L -19.76250457763672 64.75 L -19.762451171875 64.42601013183594 L -19.762449264526367 64.42070007324219 L -19.762441635131836 64.00965881347656 L -19.76229476928711 57.633880615234375 L -19.762977600097656 57.633880615234375 L -19.76294708251953 57.34400177001953 L -19.762727737426758 55.327274322509766 L -19.763160705566406 55.327274322509766 L -19.763635635375977 55.327274322509766 L -19.76352882385254 54.36225891113281 L -19.76352882385254 54.36146926879883 L -19.906110763549805 54.4716682434082 L -20.442203521728516 54.88302230834961 L -20.479999542236328 54.91203308105469 L -20.980224609375 55.29600143432617 L -21.539785385131836 55.72551345825195 L -21.54060935974121 55.725852966308594 L -22.412569046020508 56.08721160888672 L -22.527999877929688 56.13503646850586 L -23.690889358520508 56.61684036254883 L -24.576000213623047 56.73329162597656 L -24.627878189086914 56.74011993408203 L -26 56.92085647583008 L -26.00080680847168 56.92074966430664 L -26.936988830566406 56.79758071899414 L -28.309110641479492 56.61684036254883 L -28.672000885009766 56.466453552246094 L -29.18189239501953 56.25514221191406 L -30.460214614868164 55.72551345825195 L -30.460580825805664 55.7252311706543 L -31.210147857666016 55.15022277832031 L -32.306884765625 54.308380126953125 L -32.30773162841797 54.30773162841797 L -32.768001556396484 53.70773696899414 L -32.88302230834961 53.557796478271484 L -33.120819091796875 53.24800109863281 L -33.72551345825195 52.46021270751953 L -34.08721160888672 51.587432861328125 L -34.61684036254883 50.309112548828125 L -34.74011993408203 49.37211990356445 L -34.76911163330078 49.152000427246094 L -34.92085647583008 48 L -34.92074966430664 47.99919509887695 L -34.79758071899414 47.063011169433594 L -34.61688232421875 45.691200256347656 L -34.61684036254883 45.690887451171875 L -34.35373306274414 45.055999755859375 L -34.25514221191406 44.81810760498047 L -33.72551345825195 43.53978729248047 L -33.15022277832031 42.789852142333984 L -32.768001556396484 42.291900634765625 L -32.30773162841797 41.69226837158203 L -31.557796478271484 41.11697769165039 L -31.353288650512695 40.959999084472656 L -30.460214614868164 40.27448654174805 L -30.458770751953125 40.273887634277344 L -29.587430953979492 39.91278839111328 L -28.672000885009766 39.53350830078125 L -28.309110641479492 39.38315963745117 L -27.372121810913086 39.25988006591797 L -26 39.07914352416992 L -25.99919319152832 39.07925033569336 L -25.063011169433594 39.20241928100586 L -24.576000213623047 39.266571044921875 L -23.690889358520508 39.38315963745117 L -22.81810760498047 39.74485778808594 L -21.539785385131836 40.27448654174805 L -21.539419174194336 40.2747688293457 L -20.789852142333984 40.84977722167969 L -20.646257400512695 40.959999084472656 L -20.479999542236328 41.087615966796875 L -19.692270278930664 41.69226837158203 L -19.11697769165039 42.442203521728516 L -18.682680130004883 43.007999420166016 L -18.43199920654297 43.33457946777344 L -18.275028228759766 43.53908157348633 L -18.274486541748047 43.53978729248047 L -18.039918899536133 44.10608673095703 L -17.912946701049805 44.41261672973633 L -17.734764099121094 44.842491149902344 L -17.646265029907227 45.055999755859375 L -17.56597328186035 45.24971008300781 L -17.359418869018555 45.24980163574219 L -17.35849952697754 45.24980163574219 L -17.24956512451172 45.249847412109375 L -16.90380859375 45.25 L -16.823774337768555 45.25031280517578 L -16.66621208190918 45.25010299682617 L -16.587703704833984 45.25 L -16.587312698364258 45.25013732910156 L -16.587053298950195 45.2502326965332 L -16.47791290283203 45.250186920166016 L -16.439937591552734 45.25017166137695 L -16.416404724121094 45.250160217285156 L -16.416339874267578 45.250160217285156 L -16.384000778198242 45.25015640258789 L -15.717869758605957 45.25006103515625 L -15.148274421691895 45.25 L -14.578570365905762 45.25 L -12.288000106811523 45.25 L -8.192000389099121 45.25 L 0 45.25 L 8.739182472229004 45.25 L 8.891988754272461 45.249977111816406 L 9.003000259399414 45.25 L 9.755550384521484 45.25 L 9.828390121459961 45.24997329711914 L 9.909553527832031 45.25 L 9.95428466796875 45.249969482421875 L 9.986159324645996 45.25 L 10.01933765411377 45.250030517578125 L 10.097892761230469 45.25 L 16.384000778198242 45.25 L 24.576000213623047 45.25 L 32.768001556396484 45.25 L 49.152000427246094 45.25 L 65.53600311279297 45.25 L 75.11680603027344 45.25 L 75.34969329833984 45.250030517578125 L 75.56785583496094 45.25 L 76.06980895996094 45.25 L 76.24260711669922 45.250022888183594 L 76.47079467773438 45.25001907348633 L 76.53473663330078 45.25 L 76.5932846069336 45.24998474121094 L 76.60826110839844 45.25 L 76.62289428710938 45.25001525878906 L 76.6264877319336 45.25 L 76.63005828857422 45.24998474121094 L 76.6773452758789 45.25 L 76.7208023071289 45.25001525878906 L 76.72877502441406 45.25 L 76.76248931884766 45.24998474121094 L 76.76250457763672 45.24998474121094 L 76.76251220703125 45.24998474121094 L 76.76250457763672 45.254756927490234 L 76.76248931884766 45.258907318115234 L 76.76248168945312 45.26300811767578 L 76.76246643066406 45.278297424316406 L 76.76246643066406 45.287078857421875 L 76.76248931884766 45.31509017944336 L 76.76248931884766 45.316776275634766 L 76.76249694824219 45.3172607421875 L 76.76249694824219 45.331546783447266 L 76.76249694824219 45.35380935668945 L 76.76251983642578 45.35723114013672 L 76.76249694824219 45.36336898803711 L 76.76249694824219 49.152000427246094 L 76.76249694824219 57.34400177001953 L 76.76249694824219 61.439998626708984 L 76.76249694824219 63.487998962402344 L 76.76249694824219 64.51200103759766 L 76.76249694824219 64.74960327148438 L 76.76249694824219 64.74980926513672 L 76.76249694824219 64.74995422363281 L 76.76249694824219 64.74998474121094 L 76.72621154785156 64.74998474121094 L 76.70719146728516 64.75 L 76.6873550415039 64.75001525878906 L 76.66388702392578 64.75001525878906 L 76.61174774169922 64.75 L 76.57888793945312 64.75 L 76.56098937988281 64.75001525878906 L 76.46401977539062 64.7499771118164 L 76.37062072753906 64.7500228881836 L 76.31536865234375 64.7500228881836 L 76.28800201416016 64.75001525878906 L 76.18839263916016 64.75 L 76.12373352050781 64.7500228881836 L 76.08899688720703 64.75 L 75.8748779296875 64.75003051757812 L 75.7760009765625 64.75003051757812 L 75.66368103027344 64.75003051757812 L 75.55897521972656 64.75 L 75.3738021850586 64.75003051757812 L 75.16000366210938 64.75 L 75.00569915771484 64.75003814697266 L 74.75199890136719 64.75000762939453 L 74.65604400634766 64.75 L 74.03231811523438 64.75 L 73.93748474121094 64.75005340576172 L 73.72799682617188 64.75001525878906 L 73.27484893798828 64.74994659423828 L 72.5863037109375 64.75 L 72.06063079833984 64.75006866455078 L 71.68000030517578 64.7500228881836 L 70.8910903930664 64.74991607666016 L 70.19570922851562 64.75 L 69.63200378417969 64.75005340576172 L 69.17166900634766 64.7500991821289 L 68.96414184570312 64.75 L 68.30175018310547 64.75 L 67.79669952392578 64.75011444091797 L 67.74149322509766 64.75 L 67.685791015625 64.74988555908203 L 67.68578338623047 64.74988555908203 L 66.8863525390625 64.7498779296875 L 66.6869888305664 64.7498779296875 L 65.53600311279297 64.7498779296875 L 61.439998626708984 64.7498779296875 L 57.34400177001953 64.7498779296875 L 49.152000427246094 64.7498779296875 L 40.959999084472656 64.7498779296875 L 36.86399841308594 64.7498779296875 L 32.768001556396484 64.7498779296875 L 28.672000885009766 64.7498779296875 L 24.576000213623047 64.7498779296875 L 22.661373138427734 64.7498779296875 L 22.512950897216797 64.75 L 22.224502563476562 64.75 M -28.36433219909668 53.544429779052734 L -28.251012802124023 53.59141159057617 L -27.573888778686523 53.87215805053711 L -27.571643829345703 53.87245559692383 L -26.84878158569336 53.967613220214844 L -26.73094940185547 53.983097076416016 L -26.727008819580078 53.983612060546875 L -26 54.07914352416992 L -25.274892807006836 53.98368835449219 L -25.152788162231445 53.96764373779297 L -24.576000213623047 53.89185333251953 L -24.426111221313477 53.87215805053711 L -23.750656127929688 53.592647552490234 L -23.746543884277344 53.590938568115234 L -22.960214614868164 53.264915466308594 L -22.938175201416016 53.24800109863281 L -22.527999877929688 52.93317794799805 L -22.38021469116211 52.81974792480469 L -21.701303482055664 52.29869842529297 L -21.644004821777344 52.2239990234375 L -21.469085693359375 51.99596405029297 L -21.34046173095703 51.828277587890625 L -21.295000076293945 51.76944351196289 L -21.256044387817383 51.718753814697266 L -21.251585006713867 51.71294403076172 L -20.857908248901367 51.20000076293945 L -20.76273536682129 51.075992584228516 L -20.735347747802734 51.039764404296875 L -20.72857666015625 51.02544021606445 L -20.479999542236328 50.42417526245117 L -20.455062866210938 50.363853454589844 L -20.240379333496094 49.8460693359375 L -20.128931045532227 49.57741165161133 L -20.127763748168945 49.57460021972656 L -20.1275577545166 49.574100494384766 L -20.127492904663086 49.573944091796875 L -20.127492904663086 49.5736083984375 L -20.127492904663086 49.57251739501953 L -20.083568572998047 49.23553466796875 L -20.07248306274414 49.152000427246094 L -20.032142639160156 48.84797286987305 L -19.99102020263672 48.53501892089844 L -19.931838989257812 48.083763122558594 L -19.920852661132812 48 L -20.01218605041504 47.311683654785156 L -20.01609230041504 47.274139404296875 L -20.038448333740234 47.104000091552734 L -20.061784744262695 46.9264030456543 L -20.127201080322266 46.42827224731445 L -20.127492904663086 46.426055908203125 L -20.127492904663086 46.42534255981445 L -20.3829288482666 45.80973434448242 L -20.4073543548584 45.75065612792969 L -20.479999542236328 45.575443267822266 L -20.61493492126465 45.25 L -20.695369720458984 45.055999755859375 L -20.735084533691406 44.96021270751953 L -21.054540634155273 44.54399871826172 L -21.18025016784668 44.38021469116211 L -21.447498321533203 44.03200149536133 L -21.701303482055664 43.70130157470703 L -22.28130340576172 43.25613784790039 L -22.28679847717285 43.25191879272461 L -22.527999877929688 43.06679916381836 L -22.604616165161133 43.007999420166016 L -22.95867919921875 42.736263275146484 L -22.960214614868164 42.735084533691406 L -23.63566780090332 42.455570220947266 L -23.748987197875977 42.40858840942383 L -24.426111221313477 42.12784194946289 L -24.576000213623047 42.10810852050781 L -25.15121841430664 42.032386779785156 L -25.26905059814453 42.016902923583984 L -25.272991180419922 42.016387939453125 L -25.999340057373047 41.92094421386719 L -26 41.92085647583008 L -26.725107192993164 42.01631164550781 L -27.573888778686523 42.12784194946289 L -28.249343872070312 42.407352447509766 L -28.253934860229492 42.40925979614258 L -28.672000885009766 42.58259582519531 L -29.039785385131836 42.735084533691406 L -29.395362854003906 43.007999420166016 L -29.61978530883789 43.18025207519531 L -30.298696517944336 43.70130157470703 L -30.298755645751953 43.701377868652344 L -30.743864059448242 44.28130340576172 L -30.74806022644043 44.28676986694336 L -30.74808120727539 44.28679656982422 L -31.264915466308594 44.96021270751953 L -31.30455207824707 45.055999755859375 L -31.5444278717041 45.63566970825195 L -31.87215805053711 46.426109313964844 L -31.872453689575195 46.4283561706543 L -31.941713333129883 46.9544792175293 L -31.967613220214844 47.15121841430664 L -32.07914352416992 48 L -32.009796142578125 48.52680587768555 L -32.00967025756836 48.52775955200195 L -31.98369026184082 48.72510528564453 L -31.983152389526367 48.72919845581055 L -31.927595138549805 49.152000427246094 L -31.87215805053711 49.573890686035156 L -31.87186050415039 49.574607849121094 L -31.5926456451416 50.24934387207031 L -31.264915466308594 51.03978729248047 L -31.14194679260254 51.20000076293945 L -30.81974983215332 51.61978530883789 L -30.748037338256836 51.71322250366211 L -30.747882843017578 51.71342468261719 L -30.298696517944336 52.29869842529297 L -30.298620223999023 52.29875564575195 L -29.71869659423828 52.74386215209961 L -29.061826705932617 53.24800109863281 L -29.039785385131836 53.264915466308594 L -28.672000885009766 53.417110443115234 L -28.36433219909668 53.544429779052734 M 27.167325973510742 59.102516174316406 L 27.302167892456055 59.391998291015625 L 27.36301612854004 59.52262878417969 L 27.40167236328125 59.57804489135742 L 27.667251586914062 59.957000732421875 L 28.04239845275879 60.332149505615234 L 28.042997360229492 60.33274841308594 L 28.098413467407227 60.37140655517578 L 28.47736930847168 60.636985778808594 L 28.53859519958496 60.665584564208984 L 28.672000885009766 60.727725982666016 L 28.958707809448242 60.86127471923828 L 29.023956298828125 60.878929138183594 L 29.470703125 60.99837112426758 L 29.471248626708984 60.99851608276367 L 29.53873062133789 61.00432586669922 L 30 61.044708251953125 L 30.067481994628906 61.03889846801758 L 30.528751373291016 60.99851608276367 L 30.5939998626709 60.980865478515625 L 30.719999313354492 60.94717788696289 L 31.040876388549805 60.86138916015625 L 31.041292190551758 60.86127471923828 L 31.10251808166504 60.83267593383789 L 31.52263069152832 60.636985778808594 L 31.578046798706055 60.59832763671875 L 31.957002639770508 60.33274841308594 L 32.332149505615234 59.957603454589844 L 32.33274841308594 59.957000732421875 L 32.37140655517578 59.90158462524414 L 32.636985778808594 59.52262878417969 L 32.665584564208984 59.46140670776367 L 32.697914123535156 59.391998291015625 L 32.768001556396484 59.241539001464844 L 32.86127471923828 59.041290283203125 L 32.878929138183594 58.976043701171875 L 32.99851608276367 58.528751373291016 L 33.00432586669922 58.46126937866211 L 33.044708251953125 58 L 33.04437255859375 57.996116638183594 L 33.03889846801758 57.932518005371094 L 32.99851608276367 57.471248626708984 L 32.980865478515625 57.40599822998047 L 32.96428680419922 57.34400177001953 L 32.86138916015625 56.95912551879883 L 32.86127471923828 56.958709716796875 L 32.83267593383789 56.897483825683594 L 32.768001556396484 56.758636474609375 L 32.636985778808594 56.47737121582031 L 32.59832763671875 56.42195510864258 L 32.33274841308594 56.042999267578125 L 31.957002639770508 55.66725158691406 L 31.901586532592773 55.62859344482422 L 31.52263069152832 55.363014221191406 L 31.517303466796875 55.36052703857422 L 31.46140480041504 55.334415435791016 L 31.378936767578125 55.29600143432617 L 31.041292190551758 55.13872528076172 L 30.976043701171875 55.121070861816406 L 30.719999313354492 55.052616119384766 L 30.528751373291016 55.00148391723633 L 30.46126937866211 54.99567413330078 L 30 54.955291748046875 L 29.996116638183594 54.95562744140625 L 29.932518005371094 54.96110153198242 L 29.47240447998047 55.001380920410156 L 29.471248626708984 55.00148391723633 L 29.4060001373291 55.019134521484375 L 28.959123611450195 55.13861083984375 L 28.958707809448242 55.13872528076172 L 28.89748191833496 55.16732406616211 L 28.672000885009766 55.27235412597656 L 28.621240615844727 55.29600143432617 L 28.47736930847168 55.363014221191406 L 28.421953201293945 55.40167236328125 L 28.042997360229492 55.66725158691406 L 27.6678524017334 56.042396545410156 L 27.667251586914062 56.042999267578125 L 27.62859535217285 56.09841537475586 L 27.36301612854004 56.47737121582031 L 27.334413528442383 56.53859329223633 L 27.138723373413086 56.958709716796875 L 27.121070861816406 57.023956298828125 L 27.035503387451172 57.34400177001953 L 27.00162696838379 57.470703125 L 27.001482009887695 57.471248626708984 L 26.99567222595215 57.53873062133789 L 26.955291748046875 58 L 26.961101531982422 58.067481994628906 L 26.987409591674805 58.36800003051758 L 27.001380920410156 58.52759552001953 L 27.001482009887695 58.528751373291016 L 27.019134521484375 58.59400177001953 L 27.138612747192383 59.04087448120117 L 27.138723373413086 59.041290283203125 L 27.167325973510742 59.102516174316406 M -36.44459915161133 79.46199035644531 L -35.54890060424805 79.83299255371094 L -34.064823150634766 80.4480972290039 L -34.06306457519531 80.4488296508789 L -33.294185638427734 81.03902435302734 L -32.768001556396484 81.44249725341797 L -32.14527893066406 81.91999816894531 L -32.01777267456055 82.01776885986328 L -31.42757797241211 82.78665161132812 L -30.44935417175293 84.0623779296875 L -30.448827743530273 84.06306457519531 L -30.077829360961914 84.9587631225586 L -29.63963508605957 86.01599884033203 L -29.46331787109375 86.44140625 L -29.461992263793945 86.4446029663086 L -29.33555030822754 87.40541076660156 L -29.126129150390625 89 L -29.12632942199707 89.00152587890625 L -29.25257110595703 89.9608154296875 L -29.27242660522461 90.11199951171875 L -29.461984634399414 91.55534362792969 L -29.461992263793945 91.5553970336914 L -29.462203979492188 91.555908203125 L -29.832992553710938 92.45110321044922 L -30.448827743530273 93.93693542480469 L -30.44892120361328 93.93705749511719 L -30.656898498535156 94.20800018310547 L -31.039020538330078 94.705810546875 L -32.01701736450195 95.98124694824219 L -32.01777267456055 95.98223114013672 L -32.768001556396484 96.55810546875 L -32.786651611328125 96.57241821289062 L -34.06306457519531 97.5511703491211 L -34.06307601928711 97.55117797851562 L -34.958763122558594 97.92217254638672 L -35.880008697509766 98.30400085449219 L -36.44140625 98.53668212890625 L -36.44459915161133 98.53800964355469 L -36.86399841308594 98.59320068359375 L -37.40541458129883 98.6644515991211 L -39 98.87387084960938 L -39.001522064208984 98.87367248535156 L -39.9608154296875 98.74742889404297 L -40.959999084472656 98.61620330810547 L -41.55540084838867 98.53800964355469 L -41.555912017822266 98.53779602050781 L -41.556907653808594 98.53738403320312 L -42.120361328125 98.30400085449219 L -42.45109939575195 98.16700744628906 L -43.935176849365234 97.5519027709961 L -43.93693542480469 97.5511703491211 L -44.705814361572266 96.96097564697266 L -45.055999755859375 96.69245910644531 L -45.98124313354492 95.98298645019531 L -45.98222732543945 95.98223114013672 L -46.57242202758789 95.21334838867188 L -47.343318939208984 94.20800018310547 L -47.55064392089844 93.9376220703125 L -47.551170349121094 93.93693542480469 L -47.92217254638672 93.0412368774414 L -48.53668212890625 91.55859375 L -48.53800582885742 91.5553970336914 L -48.664451599121094 90.59458923339844 L -48.72782897949219 90.11199951171875 L -48.873870849609375 89 L -48.87367248535156 88.99847412109375 L -48.74742889404297 88.0391845703125 L -48.53800582885742 86.4446029663086 L -48.53779602050781 86.444091796875 L -48.537384033203125 86.4430923461914 L -48.36048126220703 86.01599884033203 L -48.16700744628906 85.54889678955078 L -47.55189895629883 84.0648193359375 L -47.551170349121094 84.06306457519531 L -46.96097946166992 83.294189453125 L -45.98298263549805 82.01875305175781 L -45.98222732543945 82.01776885986328 L -45.854854583740234 81.91999816894531 L -45.213348388671875 81.42758178710938 L -45.055999755859375 81.30692291259766 L -43.9376220703125 80.44935607910156 L -43.93693542480469 80.4488296508789 L -43.041236877441406 80.07782745361328 L -41.55859375 79.46331787109375 L -41.55540084838867 79.46199035644531 L -40.959999084472656 79.38363647460938 L -40.59458541870117 79.3355484008789 L -39.0009765625 79.12625885009766 L -39 79.12612915039062 L -38.0391845703125 79.25257110595703 L -36.86399841308594 79.40691375732422 L -36.44465637207031 79.46198272705078 L -36.44459915161133 79.46199035644531 M -36.643951416015625 31.48847198486328 L -36.632694244384766 31.486040115356445 L -36.62738037109375 31.48488426208496 L -36.622711181640625 31.483884811401367 L -34.97200012207031 31.12700080871582 L -34.96752166748047 31.12453269958496 L -34.95995330810547 31.12037467956543 L -34.9555778503418 31.117952346801758 L -34.95170593261719 31.11581039428711 L -34.94621658325195 31.11279296875 L -33.49102783203125 30.311016082763672 L -33.49100112915039 30.31100082397461 L -33.49100112915039 30.31100082397461 L -33.487579345703125 30.307422637939453 L -33.48396301269531 30.303640365600586 L -33.48337173461914 30.303022384643555 L -33.47264862060547 30.291826248168945 L -33.470577239990234 30.289661407470703 L -32.768001556396484 29.555570602416992 L -32.35405731201172 29.12306022644043 L -32.354000091552734 29.12299919128418 L -32.35078048706055 29.116165161132812 L -32.34939193725586 29.113245010375977 L -32.34144592285156 29.096385955810547 L -31.672000885009766 27.677000045776367 L -31.671844482421875 27.675485610961914 L -31.51396369934082 26.144731521606445 L -31.512672424316406 26.132247924804688 L -31.511150360107422 26.117460250854492 L -31.51099967956543 26.115999221801758 L -31.880964279174805 24.62142562866211 L -31.884681701660156 24.606382369995117 L -31.885530471801758 24.603012084960938 L -31.88800048828125 24.593002319335938 L -31.88800048828125 24.593000411987305 L -31.888036727905273 24.592945098876953 L -31.88807487487793 24.59288787841797 L -31.888635635375977 24.5920467376709 L -31.89432144165039 24.583351135253906 L -31.897829055786133 24.57798957824707 L -31.899139404296875 24.576000213623047 L -31.901765823364258 24.57200813293457 L -31.902437210083008 24.570964813232422 L -31.90420913696289 24.568260192871094 L -32.763999938964844 23.256000518798828 L -32.768001556396484 23.252845764160156 L -34.0320930480957 22.255855560302734 L -34.03895568847656 22.25044822692871 L -34.04768753051758 22.24355125427246 L -34.053470611572266 22.238994598388672 L -34.055999755859375 22.23699951171875 L -35.60730743408203 21.646913528442383 L -35.607383728027344 21.646894454956055 L -35.61915588378906 21.64240837097168 L -35.62532043457031 21.64006805419922 L -35.63325881958008 21.637042999267578 L -35.63600158691406 21.63599967956543 L -37.318603515625 21.512235641479492 L -37.32207107543945 21.511978149414062 L -37.33207321166992 21.511240005493164 L -37.335018157958984 21.51102638244629 L -37.3489990234375 21.510000228881836 L -37.34905242919922 21.510011672973633 L -38.998897552490234 21.866708755493164 L -39.01045608520508 21.869211196899414 L -39.01883316040039 21.871021270751953 L -39.02799987792969 21.87299919128418 L -40.4838752746582 22.67515754699707 L -40.48915481567383 22.678068161010742 L -40.49140930175781 22.679306030273438 L -40.49851989746094 22.683223724365234 L -40.508750915527344 22.688867568969727 L -40.50899887084961 22.68899917602539 L -40.509010314941406 22.689008712768555 L -40.959999084472656 23.160228729248047 L -41.6270637512207 23.85721206665039 L -41.63042449951172 23.86072540283203 L -41.6365852355957 23.867155075073242 L -41.64179229736328 23.872610092163086 L -41.645999908447266 23.87700080871582 L -41.64659118652344 23.878267288208008 L -41.65021896362305 23.88592529296875 L -41.652137756347656 23.890026092529297 L -41.656654357910156 23.899581909179688 L -41.65713119506836 23.900596618652344 L -41.97568130493164 24.576000213623047 L -42.322303771972656 25.31092071533203 L -42.327999114990234 25.322999954223633 L -42.48637390136719 26.8585262298584 L -42.48700714111328 26.864715576171875 L -42.487239837646484 26.866897583007812 L -42.48899841308594 26.884000778198242 L -42.11906814575195 28.382429122924805 L -42.11858367919922 28.38436508178711 L -42.114131927490234 28.402437210083008 L -42.11365509033203 28.40436363220215 L -42.112998962402344 28.406999588012695 L -42.11288070678711 28.407182693481445 L -42.110877990722656 28.41023826599121 L -42.105712890625 28.418119430541992 L -42.10350036621094 28.421480178833008 L -42.09952163696289 28.42755126953125 L -42.099056243896484 28.428255081176758 L -41.236000061035156 29.743999481201172 L -41.228267669677734 29.750099182128906 L -40.959999084472656 29.961681365966797 L -39.96453857421875 30.74679946899414 L -39.960079193115234 30.750320434570312 L -39.95518112182617 30.754175186157227 L -39.949615478515625 30.758569717407227 L -39.94648361206055 30.761037826538086 L -39.944000244140625 30.76300048828125 L -39.94398880004883 30.763004302978516 L -39.93819046020508 30.76520538330078 L -39.93234634399414 30.767440795898438 L -39.930538177490234 30.768136978149414 L -39.91865921020508 30.772655487060547 L -38.370574951171875 31.36249542236328 L -38.36399841308594 31.364999771118164 L -36.67847442626953 31.487995147705078 L -36.672607421875 31.48843002319336 L -36.65342330932617 31.48982048034668 L -36.65109634399414 31.489999771118164 L -36.6510009765625 31.489999771118164 L -36.6509895324707 31.48999786376953 L -36.643951416015625 31.48847198486328 M 75.37635803222656 32.41254425048828 L 75.21060180664062 32.768001556396484 L 74.95548248291016 33.315067291259766 L 74.64131164550781 33.988609313964844 L 74.64107513427734 33.989105224609375 L 74.06997680664062 34.804473876953125 L 73.72799682617188 35.292816162109375 L 73.64337158203125 35.413665771484375 L 72.41366577148438 36.64337158203125 L 72.09867095947266 36.86399841308594 L 71.59829711914062 37.214473724365234 L 70.98910522460938 37.64107894897461 L 70.08658599853516 38.06195068359375 L 69.63200378417969 38.273990631103516 L 69.41254425048828 38.37635803222656 L 69.412109375 38.3764762878418 L 68.45096588134766 38.63438415527344 L 67.73406982421875 38.82638168334961 L 67.73255920410156 38.826786041259766 L 66.74058532714844 38.913368225097656 L 66 38.97821044921875 L 65.53600311279297 38.93770980834961 L 65.00802612304688 38.89162826538086 L 64.27022552490234 38.8270263671875 L 64.26744079589844 38.826786041259766 L 63.30585861206055 38.568756103515625 L 62.58745574951172 38.37635803222656 L 61.684932708740234 37.95548629760742 L 61.439998626708984 37.84123611450195 L 61.011390686035156 37.64130783081055 L 61.010894775390625 37.64107894897461 L 60.195526123046875 37.069976806640625 L 59.90139389038086 36.86399841308594 L 59.586334228515625 36.64337158203125 L 58.35662841796875 35.413665771484375 L 57.785526275634766 34.598297119140625 L 57.35892105102539 33.989105224609375 L 57.34400177001953 33.95710754394531 L 56.93804931640625 33.08658218383789 L 56.78944396972656 32.768001556396484 L 56.62364196777344 32.41254425048828 L 56.36561584472656 31.450963973999023 L 56.17361831665039 30.73406982421875 L 56.173213958740234 30.732559204101562 L 56.086631774902344 29.74058723449707 L 56.02178955078125 29 L 56.050418853759766 28.672000885009766 L 56.10837173461914 28.008028030395508 L 56.1729736328125 27.27022361755371 L 56.173213958740234 27.267440795898438 L 56.431243896484375 26.305858612060547 L 56.62364196777344 25.587453842163086 L 57.04451370239258 24.6849308013916 L 57.0953254699707 24.576000213623047 L 57.34400177001953 24.042884826660156 L 57.35892105102539 24.010894775390625 L 57.930023193359375 23.195528030395508 L 58.35662841796875 22.586334228515625 L 58.35691833496094 22.58604621887207 L 59.586334228515625 21.35662841796875 L 60.401702880859375 20.7855281829834 L 60.83799362182617 20.479999542236328 L 61.01040267944336 20.359268188476562 L 61.010894775390625 20.358922958374023 L 61.439998626708984 20.158817291259766 L 61.91341781616211 19.938051223754883 L 62.58745574951172 19.623641967773438 L 63.54903793334961 19.36561393737793 L 64.26593017578125 19.173620223999023 L 64.26744079589844 19.173215866088867 L 65.25941467285156 19.086633682250977 L 65.53600311279297 19.062416076660156 L 66 19.02178955078125 L 66.99197387695312 19.10837173461914 L 67.72977447509766 19.172971725463867 L 67.73255920410156 19.173215866088867 L 68.69414520263672 19.431243896484375 L 69.41254425048828 19.623641967773438 L 69.63200378417969 19.72597885131836 L 70.31507110595703 20.044513702392578 L 70.98860931396484 20.358692169189453 L 70.98910522460938 20.358922958374023 L 71.16197204589844 20.479999542236328 L 71.80447387695312 20.930023193359375 L 72.41366577148438 21.35662841796875 L 73.64337158203125 22.586334228515625 L 73.72799682617188 22.7071590423584 L 74.21446990966797 23.401700973510742 L 74.64107513427734 24.010894775390625 L 74.90460205078125 24.576000213623047 L 75.06195068359375 24.91341781616211 L 75.37635803222656 25.587453842163086 L 75.37647247314453 25.587888717651367 L 75.63438415527344 26.549036026000977 L 75.8267822265625 27.267440795898438 L 75.91336822509766 28.25941276550293 L 75.94949340820312 28.672000885009766 L 75.97821044921875 29 L 75.97811126708984 29.001163482666016 L 75.89163208007812 29.991971969604492 L 75.8270263671875 30.72977638244629 L 75.8267822265625 30.732559204101562 L 75.56875610351562 31.694141387939453 L 75.37635803222656 32.41254425048828 M -43.867950439453125 35.095123291015625 L -43.87799835205078 35.09000015258789 L -43.878021240234375 35.0899772644043 L -46.09000015258789 32.87799835205078 L -46.091400146484375 32.87525177001953 L -46.095123291015625 32.867950439453125 L -46.117523193359375 32.823974609375 L -46.146053314208984 32.768001556396484 L -47.50299835205078 30.105674743652344 L -47.51095199584961 30.09009552001953 L -47.51100158691406 30.09000015258789 L -47.51100158691406 30.089975357055664 L -47.511924743652344 30.084150314331055 L -47.98870086669922 27.071399688720703 L -48 27 L -47.99757385253906 26.984600067138672 L -47.61640930175781 24.576000213623047 L -47.52080154418945 23.97184944152832 L -47.51362609863281 23.92664909362793 L -47.511924743652344 23.915849685668945 L -47.51100158691406 23.90999984741211 L -47.50299835205078 23.894325256347656 L -46.117523193359375 21.176025390625 L -46.095123291015625 21.132049560546875 L -46.09000015258789 21.121999740600586 L -46.0899772644043 21.121978759765625 L -46.08611297607422 21.118114471435547 L -43.87799835205078 18.90999984741211 L -43.867950439453125 18.904874801635742 L -43.823974609375 18.882474899291992 L -41.105674743652344 17.496999740600586 L -41.09000015258789 17.48900032043457 L -41.08760452270508 17.48862075805664 L -41.08414840698242 17.488075256347656 L -40.959999084472656 17.468427658081055 L -40.24869155883789 17.35586166381836 L -40.238338470458984 17.354223251342773 L -38.0713996887207 17.01129913330078 L -38.00129699707031 17.000205993652344 L -38.000003814697266 17 L -38 17 L -37.9286003112793 17.01129913330078 L -34.91585159301758 17.488075256347656 L -34.90999984741211 17.48900032043457 L -34.894325256347656 17.496999740600586 L -32.768001556396484 18.58075523376465 L -32.176025390625 18.882474899291992 L -32.13814926147461 18.901775360107422 L -32.132049560546875 18.904874801635742 L -32.12200164794922 18.90999984741211 L -29.91388511657715 21.118114471435547 L -29.910022735595703 21.121978759765625 L -29.90999984741211 21.121999740600586 L -29.904874801635742 21.132049560546875 L -29.882474899291992 21.176025390625 L -28.496999740600586 23.894325256347656 L -28.48900032043457 23.909997940063477 L -28.48900032043457 23.90999984741211 L -28.488075256347656 23.915849685668945 L -28.383604049682617 24.576000213623047 L -28.01129913330078 26.928600311279297 L -28.009599685668945 26.93939971923828 L -28 26.999998092651367 L -28 27 L -28.01129913330078 27.071399688720703 L -28.446348190307617 29.82048225402832 L -28.449607849121094 29.84107208251953 L -28.488075256347656 30.084150314331055 L -28.48862075805664 30.087602615356445 L -28.488994598388672 30.089969635009766 L -28.48900032043457 30.09000015258789 L -28.496999740600586 30.105674743652344 L -29.839845657348633 32.74033737182617 L -29.853944778442383 32.768001556396484 L -29.882474899291992 32.823974609375 L -29.904874801635742 32.867950439453125 L -29.908599853515625 32.87525177001953 L -29.90999984741211 32.87799835205078 L -32.12200164794922 35.09000015258789 L -32.132049560546875 35.095123291015625 L -32.176025390625 35.117523193359375 L -32.768001556396484 35.419246673583984 L -34.894325256347656 36.50299835205078 L -34.90999984741211 36.51100158691406 L -34.91585159301758 36.511924743652344 L -37.9286003112793 36.98870086669922 L -38 37 L -38.000003814697266 37 L -38.00002670288086 37 L -38.00130844116211 36.99979782104492 L -38.0713996887207 36.98870086669922 L -41.08414840698242 36.511924743652344 L -41.089969635009766 36.51100540161133 L -41.09000015258789 36.51100158691406 L -41.090572357177734 36.51070785522461 L -41.105674743652344 36.50299835205078 L -43.823974609375 35.117523193359375 L -43.867950439453125 35.095123291015625 M -39.340999603271484 60.4119987487793 L -39.248878479003906 61.111141204833984 L -39 63 L -39.091819763183594 63.696868896484375 L -39.33414840698242 65.53600311279297 L -39.340999603271484 65.58799743652344 L -40.34000015258789 68 L -41.92900085449219 70.07099914550781 L -43.44331359863281 71.23287200927734 L -44 71.66000366210938 L -46.4119987487793 72.65899658203125 L -49 73 L -49.152000427246094 72.97997283935547 L -51.5880012512207 72.65899658203125 L -53.35071563720703 71.92891693115234 L -54 71.66000366210938 L -56.07099914550781 70.07099914550781 L -57.65999984741211 68 L -58.659000396728516 65.58799743652344 L -58.66585159301758 65.53600311279297 L -59 63 L -58.659000396728516 60.4119987487793 L -57.65999984741211 58 L -56.50089645385742 56.48929977416992 L -56.07099914550781 55.92900085449219 L -54 54.34000015258789 L -51.5880012512207 53.340999603271484 L -49.152000427246094 53.02002716064453 L -49 53 L -46.4119987487793 53.340999603271484 L -44 54.34000015258789 L -43.44331359863281 54.76712417602539 L -41.92900085449219 55.92900085449219 L -41.49910354614258 56.48929977416992 L -40.959999084472656 57.191932678222656 L -40.84332275390625 57.34400177001953 L -40.34000015258789 58 L -39.340999603271484 60.4119987487793 M 74 -72.97550964355469 L 77.8239974975586 -72.97550964355469 L 81.91999816894531 -72.97550964355469 L 94 -72.97550964355469 L 94 -65.53600311279297 L 94 -53.02449035644531 L 81.91999816894531 -53.02449035644531 L 74 -53.02449035644531 L 74 -57.34400177001953 L 74 -65.53600311279297 L 74 -69.63200378417969 L 74 -72.97550964355469 M 2.002000093460083 14 L 2.002000093460083 1.1102230246251565e-16 L 2.002000093460083 -6 L 32.768001556396484 -6 L 37.33700180053711 -6 L 40.99290466308594 -6 L 40.898582458496094 -5.974703311920166 L 40.875 -5.968379020690918 L 35.9990234375 -4.6620001792907715 L 35.999000549316406 -4.6620001792907715 L 32.768001556396484 -1.430999994277954 L 32.3380012512207 -1.0010000467300415 L 32.069786071777344 1.1102230246251565e-16 L 30.99799919128418 4 L 32.3380012512207 9.00100040435791 L 32.768001556396484 9.430999755859375 L 35.999000549316406 12.661999702453613 L 40.98899841308594 14 L 32.768001556396484 14 L 28.31853675842285 14 L 2.002000093460083 14 M -29 -67 L 0 -67 L 39.86449432373047 -67 L 41.98099899291992 -67 L 38.909000396728516 -66.51300048828125 L 36.99212646484375 -65.53600311279297 L 36.12099838256836 -65.09200286865234 L 33.90800094604492 -62.87900161743164 L 32.768001556396484 -60.6423225402832 L 32.48699951171875 -60.090999603271484 L 31.99799919128418 -57 L 32.48699951171875 -53.909000396728516 L 32.768001556396484 -53.3576774597168 L 33.90800094604492 -51.12099838256836 L 35.87699890136719 -49.152000427246094 L 36.12099838256836 -48.90800094604492 L 38.909000396728516 -47.48699951171875 L 41.98699951171875 -47 L 32.768001556396484 -47 L 30.415987014770508 -47 L 21 -47 L 21 -36.25 L 1 -36.25 L 1 -47 L 0 -47 L -29 -47 L -29 -65.53600311279297 L -29 -67 M 52 -6 L 52 -4.6620001792907715 L 52 1.1102230246251565e-16 L 52 7.718118667602539 L 52 14 L 48.321537017822266 14 L 44.66299819946289 14 L 41.01100158691406 14 L 46.000999450683594 12.661999702453613 L 49.6619987487793 9.00100040435791 L 51.00299835205078 4 L 49.930416107177734 1.1102230246251565e-16 L 49.6619987487793 -1.0010000467300415 L 46.000999450683594 -4.6620001792907715 L 45.8759880065918 -4.695520401000977 L 41.00709915161133 -6 L 41.01100158691406 -6 L 52 -6 M -79.66000366210938 14 L -80.65899658203125 11.588000297546387 L -81 9 L -80.89353942871094 8.192000389099121 L -80.65899658203125 6.4120001792907715 L -79.66000366210938 4 L -78.07099914550781 1.9290000200271606 L -77.51070404052734 1.4991037845611572 L -76 0.3400000035762788 L -75.35071563720703 0.07107979804277431 L -75.1791000366211 1.1102230246251565e-16 L -73.58799743652344 -0.6589999794960021 L -71 -0.9999999999999999 L -68.41200256347656 -0.6589999794960021 L -66.8208999633789 1.1102230246251565e-16 L -66 0.3400000035762788 L -65.53600311279297 0.6960096359252931 L -63.92900085449219 1.9290000200271606 L -62.34000015258789 4 L -61.340999603271484 6.4120001792907715 L -61.10646438598633 8.192000389099121 L -61 9 L -61.340999603271484 11.588000297546387 L -62.34000015258789 14 L -62.76712417602539 14.556686401367188 L -63.92900085449219 16.070999145507812 L -64.33694458007812 16.384000778198242 L -65.53600311279297 17.30398941040039 L -66 17.65999984741211 L -68.41200256347656 18.659000396728516 L -71 19 L -73.58799743652344 18.659000396728516 L -76 17.65999984741211 L -77.66305541992188 16.384000778198242 L -78.07099914550781 16.070999145507812 L -79.23287200927734 14.556686401367188 L -79.66000366210938 14 M -30 -68 L -30 -67 L -30 -65.53600311279297 L -30 -47 L -30 -32.768001556396484 L -30 -16.384000778198242 L -30 -6 L -18.003000259399414 -6 L -18.003000259399414 -3.9679999351501465 L -20.091999053955078 -1.878999948501587 L -21.04969596862793 1.1102230246251565e-16 L -21.51300048828125 0.9089999794960023 L -22.003000259399414 4 L -21.51300048828125 7.091000080108643 L -20.091999053955078 9.878999710083008 L -18.003000259399414 11.968000411987305 L -18.003000259399414 14 L -23.588247299194336 14 L -32.768001556396484 14 L -49.152000427246094 14 L -50 14 L -50 8.192000389099121 L -50 1.1102230246251565e-16 L -50 -32.768001556396484 L -50 -65.53600311279297 L -50 -68 L -32.768001556396484 -68 L -30 -68 M 66 -5 L 66 -25 L 85.5 -25 L 85.5 -5 L 66 -5 M -89 -46.33000183105469 L -87.4122314453125 -49.152000427246094 L -81.5 -59.65999984741211 L -78.12614440917969 -59.65999984741211 L -74.31099700927734 -59.65999984741211 L -69.87385559082031 -59.65999984741211 L -66.5 -59.65999984741211 L -65.53600311279297 -57.946651458740234 L -59 -46.33000183105469 L -61.140621185302734 -42.52540588378906 L -62.94185256958008 -39.32401657104492 L -65.53600311279297 -34.713348388671875 L -66.5 -33 L -69.53746032714844 -33 L -73.02899932861328 -33 L -74.97100067138672 -33 L -81.5 -33 L -85.06061553955078 -39.328399658203125 L -89 -46.33000183105469 M 42.01900100708008 -67 L 44.13550567626953 -67 L 53 -67 L 53 -65.53600311279297 L 53 -62.48190689086914 L 53 -59.97100067138672 L 53 -49.152000427246094 L 53 -47 L 45.97100067138672 -47 L 44.13550567626953 -47 L 42.01300048828125 -47 L 45.090999603271484 -47.48699951171875 L 47.87900161743164 -48.90800094604492 L 48.12300109863281 -49.152000427246094 L 50.09199905395508 -51.12099838256836 L 51.51300048828125 -53.909000396728516 L 52.00299835205078 -57 L 51.51300048828125 -60.090999603271484 L 50.09199905395508 -62.87900161743164 L 47.87900161743164 -65.09200286865234 L 47.00787353515625 -65.53600311279297 L 45.090999603271484 -66.51300048828125 L 42.01900100708008 -67 M -45.25 56.505001068115234 L -47.058998107910156 55.75600051879883 L -49 55.5 L -49.152000427246094 55.52004623413086 L -50.941001892089844 55.75600051879883 L -52.75 56.505001068115234 L -54.303001403808594 57.696998596191406 L -55.494998931884766 59.25 L -56.24399948120117 61.058998107910156 L -56.5 63 L -56.24399948120117 64.94100189208984 L -55.99764633178711 65.53600311279297 L -55.494998931884766 66.75 L -54.303001403808594 68.3030014038086 L -52.75 69.49500274658203 L -50.941001892089844 70.24400329589844 L -49.152000427246094 70.47994995117188 L -49 70.5 L -47.058998107910156 70.24400329589844 L -45.25 69.49500274658203 L -43.696998596191406 68.3030014038086 L -42.505001068115234 66.75 L -42.00235366821289 65.53600311279297 L -41.75600051879883 64.94100189208984 L -41.5 63 L -41.75600051879883 61.058998107910156 L -42.505001068115234 59.25 L -43.696998596191406 57.696998596191406 L -44.15690612792969 57.34400177001953 L -45.25 56.505001068115234 M -68.12100219726562 -54.09199905395508 L -70.90899658203125 -55.51300048828125 L -74 -56.00299835205078 L -77.09100341796875 -55.51300048828125 L -79.87899780273438 -54.09199905395508 L -82.09200286865234 -51.87900161743164 L -83.4819107055664 -49.152000427246094 L -83.51300048828125 -49.090999603271484 L -84.00299835205078 -46 L -83.51300048828125 -42.909000396728516 L -82.09200286865234 -40.12099838256836 L -79.87899780273438 -37.90800094604492 L -77.09100341796875 -36.48699951171875 L -74 -35.99800109863281 L -70.90899658203125 -36.48699951171875 L -68.12100219726562 -37.90800094604492 L -65.90799713134766 -40.12099838256836 L -65.53600311279297 -40.85086441040039 L -64.48699951171875 -42.909000396728516 L -63.99800109863281 -46 L -64.48699951171875 -49.090999603271484 L -65.53600311279297 -51.14913558959961 L -65.90799713134766 -51.87900161743164 L -68.12100219726562 -54.09199905395508 M -69.05899810791016 16.243999481201172 L -67.25 15.494999885559082 L -65.6969985961914 14.303000450134277 L -65.53600311279297 14.093240737915039 L -64.50499725341797 12.75 L -63.75600051879883 10.940999984741211 L -63.5 9 L -63.6065673828125 8.192000389099121 L -63.75600051879883 7.059000015258789 L -64.50499725341797 5.25 L -65.53600311279297 3.906759262084961 L -65.6969985961914 3.697000026702881 L -67.25 2.505000114440918 L -69.05899810791016 1.75600004196167 L -71 1.5 L -72.94100189208984 1.75600004196167 L -73.72799682617188 2.081850290298462 L -74.75 2.505000114440918 L -76.3030014038086 3.697000026702881 L -77.49500274658203 5.25 L -78.24400329589844 7.059000015258789 L -78.3934326171875 8.192000389099121 L -78.5 9 L -78.24400329589844 10.940999984741211 L -77.49500274658203 12.75 L -76.3030014038086 14.303000450134277 L -74.75 15.494999885559082 L -73.72799682617188 15.918149948120117 L -72.94100189208984 16.243999481201172 L -71.8795166015625 16.384000778198242 L -71 16.5 L -70.1204833984375 16.384000778198242 L -69.05899810791016 16.243999481201172 M -31.899139404296875 24.576000213623047 L -31.899139404296875 24.576000213623047 z" fill="none" stroke="rgb(0,0,255)" stroke-width="0.01mm" />
</svg>